<svg width="120" height="48" viewBox="0 0 120 48" fill="none" xmlns="http://www.w3.org/2000/svg">
<g clip-path="url(#clip0_1_270)">
<g filter="url(#filter0_f_1_270)">
<path d="M102 19H107.146C108.282 19 109.323 19.6487 109.601 20.7506C109.813 21.593 110 22.703 110 24C110 25.297 109.813 26.407 109.601 27.2494C109.323 28.3513 108.282 29 107.146 29H102V19Z" fill="white"/>
</g>
<g filter="url(#filter1_f_1_270)">
<path class="brush-color" d="M102 19H107.146C108.282 19 109.323 19.6487 109.601 20.7506C109.813 21.593 110 22.703 110 24C110 25.297 109.813 26.407 109.601 27.2494C109.323 28.3513 108.282 29 107.146 29H102V19Z" fill="white"/>
</g>
<g filter="url(#filter2_f_1_270)">
<path class="brush-color" d="M102 19H107.146C108.282 19 109.323 19.6487 109.601 20.7506C109.813 21.593 110 22.703 110 24C110 25.297 109.813 26.407 109.601 27.2494C109.323 28.3513 108.282 29 107.146 29H102V19Z" fill="white"/>
</g>
<g filter="url(#filter3_iiii_1_270)">
<path  d="M0 15H82.3579C83.4414 15 84.5135 15.2201 85.5093 15.6468L91 18H101C101.552 18 102 18.4477 102 19V29C102 29.5523 101.552 30 101 30H91L85.5093 32.3532C84.5135 32.7799 83.4414 33 82.3579 33H0V15Z" fill="#3E3F3F"/>
</g>
<rect class="brush-color" x="76" y="15" width="4" height="18" rx="0.5" fill="white"/>
<path d="M102 19H107.146C108.282 19 109.323 19.6487 109.601 20.7506C109.813 21.593 110 22.703 110 24C110 25.297 109.813 26.407 109.601 27.2494C109.323 28.3513 108.282 29 107.146 29H102V19Z" fill="white"/>
</g>
<defs>
<filter id="filter0_f_1_270" x="96" y="13" width="20" height="22" filterUnits="userSpaceOnUse" color-interpolation-filters="sRGB">
<feFlood flood-opacity="0" result="BackgroundImageFix"/>
<feBlend mode="normal" in="SourceGraphic" in2="BackgroundImageFix" result="shape"/>
<feGaussianBlur stdDeviation="3" result="effect1_foregroundBlur_1_270"/>
</filter>
<filter id="filter1_f_1_270" x="96" y="13" width="20" height="22" filterUnits="userSpaceOnUse" color-interpolation-filters="sRGB">
<feFlood flood-opacity="0" result="BackgroundImageFix"/>
<feBlend mode="normal" in="SourceGraphic" in2="BackgroundImageFix" result="shape"/>
<feGaussianBlur stdDeviation="3" result="effect1_foregroundBlur_1_270"/>
</filter>
<filter id="filter2_f_1_270" x="96" y="13" width="20" height="22" filterUnits="userSpaceOnUse" color-interpolation-filters="sRGB">
<feFlood flood-opacity="0" result="BackgroundImageFix"/>
<feBlend mode="normal" in="SourceGraphic" in2="BackgroundImageFix" result="shape"/>
<feGaussianBlur stdDeviation="3" result="effect1_foregroundBlur_1_270"/>
</filter>
<filter id="filter3_iiii_1_270" x="0" y="10" width="105" height="28" filterUnits="userSpaceOnUse" color-interpolation-filters="sRGB">
<feFlood flood-opacity="0" result="BackgroundImageFix"/>
<feBlend mode="normal" in="SourceGraphic" in2="BackgroundImageFix" result="shape"/>
<feColorMatrix in="SourceAlpha" type="matrix" values="0 0 0 0 0 0 0 0 0 0 0 0 0 0 0 0 0 0 127 0" result="hardAlpha"/>
<feOffset dx="1" dy="5"/>
<feGaussianBlur stdDeviation="3"/>
<feComposite in2="hardAlpha" operator="arithmetic" k2="-1" k3="1"/>
<feColorMatrix type="matrix" values="0 0 0 0 0.137255 0 0 0 0 0.145098 0 0 0 0 0.14902 0 0 0 1 0"/>
<feBlend mode="normal" in2="shape" result="effect1_innerShadow_1_270"/>
<feColorMatrix in="SourceAlpha" type="matrix" values="0 0 0 0 0 0 0 0 0 0 0 0 0 0 0 0 0 0 127 0" result="hardAlpha"/>
<feOffset dx="3" dy="-5"/>
<feGaussianBlur stdDeviation="3"/>
<feComposite in2="hardAlpha" operator="arithmetic" k2="-1" k3="1"/>
<feColorMatrix type="matrix" values="0 0 0 0 0.137255 0 0 0 0 0.145098 0 0 0 0 0.14902 0 0 0 1 0"/>
<feBlend mode="normal" in2="effect1_innerShadow_1_270" result="effect2_innerShadow_1_270"/>
<feColorMatrix in="SourceAlpha" type="matrix" values="0 0 0 0 0 0 0 0 0 0 0 0 0 0 0 0 0 0 127 0" result="hardAlpha"/>
<feOffset dx="1" dy="-1"/>
<feGaussianBlur stdDeviation="0.5"/>
<feComposite in2="hardAlpha" operator="arithmetic" k2="-1" k3="1"/>
<feColorMatrix type="matrix" values="0 0 0 0 0.242217 0 0 0 0 0.247242 0 0 0 0 0.247101 0 0 0 1 0"/>
<feBlend mode="normal" in2="effect2_innerShadow_1_270" result="effect3_innerShadow_1_270"/>
<feColorMatrix in="SourceAlpha" type="matrix" values="0 0 0 0 0 0 0 0 0 0 0 0 0 0 0 0 0 0 127 0" result="hardAlpha"/>
<feOffset dx="1" dy="1"/>
<feGaussianBlur stdDeviation="0.5"/>
<feComposite in2="hardAlpha" operator="arithmetic" k2="-1" k3="1"/>
<feColorMatrix type="matrix" values="0 0 0 0 0.242217 0 0 0 0 0.247242 0 0 0 0 0.247101 0 0 0 1 0"/>
<feBlend mode="normal" in2="effect3_innerShadow_1_270" result="effect4_innerShadow_1_270"/>
</filter>
<clipPath id="clip0_1_270">
<rect width="20" height="120" fill="white" transform="matrix(0 1 -1 0 120 14)"/>
</clipPath>
</defs>
</svg>
